<svg width="651" height="927" viewBox="0 0 651 927" fill="none" xmlns="http://www.w3.org/2000/svg">
<path d="M540.824 846.438C543.779 855.486 550.352 842.184 562.262 834.035C556.383 845.105 548.543 855.651 536.527 862.556C528.266 861.972 535.819 858.392 532.954 857.598C531.673 857.239 530.271 867.41 511.516 870.001C496.546 872.069 240.795 872.129 208.442 871.245C190.17 870.75 167.284 871.949 149.826 870.001C133.046 868.129 118.528 856.759 101.929 853.883C92.959 844.326 88.994 836.087 86.2049 824.118C80.461 799.446 83.642 738.074 83.3405 707.53C82.647 634.308 87.0794 510.694 83.3405 449.546L91.9188 448.303C91.6625 560.532 91.4816 672.821 91.9188 785.05C91.9791 802.367 86.1296 805.243 94.7832 824.747C103.889 845.255 124.513 861.148 149.826 863.815H501.506C516.129 861.583 530.226 855.681 540.824 846.453V846.438Z" fill="#FC4D5C"/>
<path d="M419.311 43.9511C434.055 44.1309 448.905 43.5167 463.635 43.9511C486.414 44.6252 501.656 42.7228 524.391 51.3961C542.829 58.4217 557.408 72.1283 566.559 87.3628C586.791 121.053 575.71 163.865 576.569 201.465C572.529 199.412 567.629 197.285 563.71 198.978C563.483 176.194 565.368 114.132 563.71 103.481C559.368 75.6636 529.487 58.7812 499.38 56.3545C481.62 54.9164 160.394 54.467 142.695 56.3545C112.799 59.5452 91.8586 79.2887 83.3707 103.481C83.7627 97.0399 84.9386 92.3212 86.2352 86.1195C105.713 49.8382 149.479 44.2507 191.315 46.4228L187.034 43.9362C264.449 44.6252 341.94 43.0224 419.341 43.9362L419.311 43.9511Z" fill="#FC4D5C"/>
<path d="M532.954 860.07C522.657 865.987 515.436 866.976 504.37 869.987C494.556 872.668 480.776 869.298 484.349 882.39C362.429 882.405 240.267 883.843 118.377 882.39C91.4665 882.076 64.4954 882.93 37.5997 882.39C30.8004 882.255 22.2522 880.053 15.4378 879.904C14.9554 879.904 14.488 879.904 14.0056 879.904C26.8052 873.088 39.5746 889.281 35.4438 869.987C66.6513 870.107 97.8738 869.897 129.081 869.987C115.603 865.074 107.628 861.284 98.3412 851.382C114.94 854.258 129.458 865.628 146.238 867.5C163.696 869.448 186.566 868.234 204.854 868.744C237.192 869.627 492.957 869.568 507.928 867.5C526.698 864.909 528.085 854.737 529.366 855.097C532.246 855.891 524.678 859.471 532.939 860.055L532.954 860.07Z" fill="#273AAA"/>
<path d="M575.137 561.161C574.655 616.107 577.851 770.505 572.273 806.741C572.092 807.895 571.067 808.045 570.841 809.228C566.453 794.143 578.439 768.438 563.694 772.018C565.428 727.917 563.257 683.457 563.694 639.311C564.132 594.282 565.006 549.147 565.127 504.118L572.273 498.53C573.705 513.001 570.328 553.477 572.273 560.547C572.529 561.476 574.172 561.176 575.137 561.161Z" fill="#FC4D5C"/>
<path d="M570.841 809.228C569.469 816.433 568.172 822.2 565.127 829.076L557.981 824.118C565.081 807.19 563.016 789.544 563.694 772.018C578.439 768.437 566.453 794.143 570.841 809.228Z" fill="#FC4D5C"/>
<path d="M565.127 829.062C564.373 830.755 563.107 832.432 562.262 834.02C550.352 842.169 543.779 855.471 540.824 846.423C546.04 841.885 555.599 829.796 557.981 824.104L565.127 829.062Z" fill="#FC4D5C"/>
<path d="M576.569 201.479C579.946 203.187 584.017 204.34 585.148 208.295C588.6 220.474 583.761 260.725 583.715 275.884C573.78 281.382 568.051 289.831 582.283 294.489C581.906 308.211 587.183 350.679 583.715 360.85C583.324 361.989 576.961 365.913 576.569 367.052C575.454 370.318 576.916 419.107 576.569 430.926C567.433 425.923 582.63 361.225 565.127 385.028C564.946 323.056 564.328 260.949 563.694 198.978C567.614 197.285 572.529 199.412 576.554 201.464L576.569 201.479Z" fill="#FC4D5C"/>
<path d="M576.569 430.926C575.303 474.412 575.529 517.674 575.137 561.161C574.172 561.161 572.529 561.461 572.273 560.547C570.328 553.476 573.705 513.001 572.273 498.53L565.127 504.118C565.232 464.436 565.247 424.739 565.127 385.042C582.63 361.224 567.418 425.938 576.569 430.941V430.926Z" fill="#FC4D5C"/>
<path d="M582.283 294.504C568.052 289.846 573.78 281.397 583.716 275.899C583.7 282.191 582.449 288.438 582.283 294.504Z" fill="#FF7985"/>
<path d="M499.365 56.3543C486.279 65.2074 499.546 63.4547 500.797 67.5143C478.334 64.2337 252.946 65.6268 210.598 66.271C173.284 66.8402 136.65 58.766 110.523 86.1193C97.9191 99.3166 102.547 100.815 101.944 101.623C100.98 102.912 91.1801 104.035 90.5017 105.338C88.6926 108.829 91.9188 141.725 91.9339 150.608C85.7829 151.102 92.7782 140.631 84.7879 143.792C86.989 163.356 81.2601 220.953 86.2201 234.959H83.3556C85.9035 191.368 80.7023 147.072 83.3556 103.481C91.8435 79.2885 112.784 59.545 142.68 56.3543C160.379 54.4668 481.605 54.9162 499.365 56.3543Z" fill="#FC4D5C"/>
<path d="M86.22 234.959C87.5769 238.794 90.4112 239.618 90.5016 239.917C93.0947 248.396 95.6577 285.786 93.3661 293.875C92.4314 297.17 86.7326 299.223 84.7878 304.421C74.5361 301.275 76.7221 254.448 77.6417 241.79C77.7624 240.112 83.2802 236.247 83.3556 234.974H86.22V234.959Z" fill="#FC4D5C"/>
<path d="M84.7878 378.841C84.6069 375.246 70.9329 338.86 83.3556 308.151C85.5567 309.41 94.5269 316.645 94.7983 317.454C96.2456 321.783 97.9191 375.216 84.7878 378.841Z" fill="#FC4D5D"/>
<path d="M91.9339 448.288L83.3556 449.531C83.2049 447.075 75.6819 427.391 79.074 401.161C79.9183 395.184 82.6772 390.331 83.3556 385.043C99.7735 387.904 94.8436 419.871 94.7984 446.43C94.7984 447.329 91.9339 448.138 91.9339 448.288Z" fill="#FC4D5D"/>
<path d="M563.694 103.496C558.674 107.661 561.931 118.581 560.83 120.244C558.252 124.138 555.674 112.14 555.116 136.991C553.925 189.421 556.156 242.075 556.548 294.505C556.94 348.028 555.9 401.596 556.548 455.119C556.579 457.051 560.83 458.579 560.83 458.834C561.855 542.047 561.508 625.53 560.83 708.758C560.679 727.573 560.936 746.388 560.83 765.188C559.88 766.506 549.674 765.832 547.97 760.843C544.141 556.278 553.382 351.428 549.402 146.893C549.206 136.602 550.036 126.146 549.402 115.885C547.653 87.8871 536.648 75.1992 503.661 68.7578C503.511 68.7279 504.807 68.0987 500.797 67.5145C499.546 63.455 486.279 65.2076 499.365 56.3545C529.472 58.7962 559.353 75.6636 563.694 103.481V103.496Z" fill="#FC4D5C"/>
<path d="M563.695 198.993C564.313 260.964 564.931 323.071 565.127 385.043C565.247 424.724 565.232 464.421 565.127 504.118C565.006 549.147 564.147 594.267 563.695 639.311L560.83 708.773C561.508 625.545 561.855 542.077 560.83 458.848C560.83 458.579 556.564 457.066 556.548 455.133C555.9 401.61 556.94 348.027 556.548 294.519C561.916 299.433 562.217 264.799 562.262 249.25C562.308 235.094 563.348 142.758 560.83 137.62C560.242 136.422 556.533 137.186 555.116 137.006C555.674 112.154 558.252 124.153 560.83 120.258C561.931 118.595 558.659 107.675 563.695 103.511C565.353 114.161 563.468 176.238 563.695 199.007V198.993Z" fill="#FC4D5C"/>
<path d="M91.9339 150.622C91.9942 180.342 93.0646 210.257 90.5016 239.917C90.4112 239.618 87.5618 238.779 86.22 234.959C81.26 220.953 86.9889 163.355 84.7878 143.791C92.7781 140.646 85.7828 151.102 91.9339 150.607V150.622Z" fill="#FC4D5C"/>
<path d="M110.523 86.1348C106.286 91.0931 100.376 103.107 104.809 108.455C105.186 108.904 110.176 107.002 113.387 115.271C116.87 124.244 113.071 142.669 116.96 145.665C162.942 146.074 208.929 146.489 254.921 146.908C247.775 146.953 240.629 146.848 233.483 146.908C214.321 147.073 195.431 147.702 176.3 148.151C156.309 148.631 136.242 147.283 116.252 148.766L117.684 762.716C179.978 766.221 242.589 764.439 304.959 764.573C327.347 764.618 349.75 764.633 372.153 764.573C373.585 764.573 375.017 764.573 376.434 764.573C433.377 764.424 490.319 764.678 547.277 764.573L547.985 760.859C549.704 765.847 559.91 766.521 560.845 765.203C560.951 746.388 560.694 727.573 560.845 708.773L563.709 639.312C563.272 683.457 565.443 727.933 563.709 772.018C563.016 789.53 565.081 807.176 557.996 824.119C555.614 829.811 546.055 841.9 540.839 846.439C530.241 855.666 516.144 861.568 501.521 863.8H149.841C124.528 861.134 103.904 845.24 94.7983 824.733C86.1447 805.229 92.0093 802.368 91.9339 785.036C91.4967 672.807 91.6776 560.518 91.9339 448.288C91.9339 448.139 94.7983 447.33 94.7983 446.431C94.8436 419.871 99.7885 387.904 83.3556 385.043C83.4611 384.249 85.014 383.725 84.7878 378.842C97.904 375.216 96.2456 321.768 94.7983 317.454C94.527 316.645 85.5718 309.41 83.3556 308.152C83.8682 306.878 84.3054 305.71 84.7878 304.437C86.7326 299.239 92.4314 297.186 93.3661 293.891C95.6727 285.817 93.0947 248.427 90.5016 239.933C93.0646 210.258 91.9942 180.343 91.9339 150.638C91.9188 141.755 88.6925 108.859 90.5016 105.369C91.1801 104.066 100.98 102.942 101.944 101.654C102.547 100.845 97.9191 99.347 110.523 86.1497V86.1348Z" fill="#273AAA"/>
<path d="M304.235 820.389C371.791 818.741 371.791 825.767 304.235 824.104V820.389Z" fill="#FC4D5C"/>
<path d="M556.548 294.504C556.156 242.059 553.925 189.42 555.116 136.991C556.533 137.185 560.242 136.406 560.83 137.605C563.348 142.743 562.307 235.079 562.262 249.235C562.202 264.784 561.915 299.432 556.548 294.504Z" fill="#FC4D5C"/>
<path d="M549.402 115.899C540.598 98.133 527.06 80.247 502.229 78.6891C502.079 74.6745 498.867 71.7684 503.662 68.7725C536.648 75.2138 547.669 87.9018 549.402 115.899Z" fill="#FF7985"/>
<path d="M439.317 81.1611C464.072 110.701 393.048 113.338 422.16 81.1611C427.889 81.1611 433.618 81.1761 439.317 81.1611Z" fill="#273AAA"/>
<path d="M210.598 66.286C217.216 69.8212 209.648 71.1994 209.165 73.1018C208.412 76.0828 217.457 77.1164 206.301 79.9177C194.436 79.9626 182.405 79.4982 170.556 79.9177C142.152 80.9363 114.503 78.0452 104.794 108.439C100.376 103.092 106.286 91.0627 110.508 86.1194C136.634 58.7661 173.269 66.8402 210.583 66.271L210.598 66.286Z" fill="#FC4D5C"/>
<path d="M500.797 67.5292C504.792 68.1134 503.496 68.7426 503.661 68.7725C498.882 71.7835 502.078 74.6896 502.229 78.6892C491.57 78.0151 454.709 81.1159 439.332 81.1759C433.633 81.1908 427.904 81.1759 422.175 81.1759C365.474 81.2957 308.758 81.1609 252.057 81.1759C241.097 81.1759 230.257 79.9175 219.176 79.9325C214.894 79.9325 210.598 79.9175 206.316 79.9325C217.472 77.1313 208.427 76.0977 209.18 73.1167C209.663 71.2142 217.231 69.8361 210.613 66.3008C252.961 65.6567 478.349 64.2636 500.812 67.5442L500.797 67.5292Z" fill="#FC4D5C"/>
<path d="M502.229 78.6896C527.075 80.2475 540.598 98.1334 549.402 115.9C550.035 126.146 549.206 136.617 549.402 146.908C474.595 147.073 399.772 146.698 324.965 146.908C331.463 145.365 313.085 119.839 310.673 117.757C304.838 112.724 293.591 112.964 286.37 109.698C318.045 103.976 394.737 117.428 372.861 97.2946C344.267 97.704 315.678 98.1185 287.094 98.5379L286.385 109.698C284.259 108.739 252.63 85.4754 252.072 81.1762C308.773 81.1612 365.489 81.2961 422.19 81.1762C393.078 113.353 464.102 110.717 439.347 81.1762C454.725 81.1313 491.586 78.0304 502.244 78.6896H502.229Z" fill="#FC4D5C"/>
<path d="M206.301 79.9327C210.583 79.9177 214.879 79.9327 219.161 79.9327L220.593 88.621C213.477 89.2202 209.814 92.3959 209.15 98.5377C201.085 103.796 191.059 95.2871 177.702 97.2944C176.888 89.6546 175.018 92.1563 171.988 87.3777C169.787 83.9024 168.008 86.1643 170.556 79.9327C182.39 79.5132 194.436 79.9776 206.301 79.9327Z" fill="#FC4D5C"/>
<path d="M170.556 79.9326C168.008 86.1493 169.772 83.9023 171.988 87.3776C123.126 98.3129 181.079 128.797 177.702 97.2943C191.059 95.272 201.1 103.796 209.15 98.5376C208.291 106.492 212.512 111.75 222.01 110.941C231.207 120.363 245.258 124.737 254.891 133.89C264.012 142.563 248.966 144.151 282.058 145.679C290.29 146.054 299.426 144.541 300.647 146.923C286.355 146.983 272.048 146.818 257.756 146.923C256.806 146.923 255.856 146.923 254.891 146.923C208.909 146.513 162.922 146.099 116.93 145.679C113.04 142.683 116.84 124.258 113.357 115.285C110.146 107.001 105.156 108.919 104.779 108.469C114.488 78.0601 142.137 80.9662 170.541 79.9476L170.556 79.9326Z" fill="#FC4D5C"/>
<path d="M252.042 81.1608C252.6 85.46 284.214 108.724 286.355 109.682C293.576 112.948 304.823 112.708 310.658 117.742C313.07 119.824 331.463 145.335 324.95 146.893C316.854 146.922 308.743 146.863 300.647 146.893C299.426 144.511 290.29 146.024 282.058 145.649C278.47 131.823 246.825 115.18 232.021 105.952C235.775 97.354 232.85 88.0366 220.578 88.5908L219.146 79.9025C230.227 79.8875 241.066 81.1458 252.027 81.1458L252.042 81.1608Z" fill="#FC4D5C"/>
<path d="M282.073 145.664C248.981 144.137 264.042 142.564 254.906 133.875C245.273 124.723 231.222 120.348 222.025 110.926L232.036 105.968C246.841 115.195 278.485 131.823 282.073 145.664Z" fill="#FC4D5C"/>
<path d="M171.988 87.3623C175.033 92.1559 176.888 89.6393 177.702 97.279C181.079 128.767 123.126 98.2826 171.988 87.3623Z" fill="#273AAA"/>
<path d="M220.593 88.6056C232.865 88.0514 235.79 97.3688 232.036 105.967L222.025 110.926C212.512 111.735 208.306 106.477 209.165 98.5223C209.829 92.3656 213.492 89.2048 220.608 88.6056H220.593Z" fill="#273AAA"/>
<path d="M286.355 109.697L287.064 98.5373C315.658 98.1278 344.247 97.7134 372.831 97.2939C394.707 117.427 318.015 103.975 286.34 109.697H286.355Z" fill="#273AAA"/>
</svg>
