<?xml version="1.0" encoding="UTF-8"?><svg id="Layer_1" xmlns="http://www.w3.org/2000/svg" viewBox="0 0 325.26 266.53"><defs><style>.cls-1{fill:#4c595f;}.cls-1,.cls-2,.cls-3,.cls-4,.cls-5,.cls-6,.cls-7,.cls-8,.cls-9,.cls-10,.cls-11,.cls-12,.cls-13,.cls-14,.cls-15,.cls-16,.cls-17,.cls-18,.cls-19{stroke-width:0px;}.cls-2{fill:rgba(39,58,170,.83);}.cls-3{fill:#c2dde0;}.cls-4{fill:#c4dfe2;}.cls-5{fill:#525459;}.cls-6{fill:#0d3c5f;}.cls-7{fill:#59c1db;}.cls-8{fill:#f7c7d9;}.cls-9{fill:#fffbee;}.cls-10{fill:#55635e;}.cls-11{fill:rgba(39,58,170,.8);}.cls-12{fill:#f7eada;}.cls-13{fill:#9cb6b8;}.cls-14{fill:#fff5eb;}.cls-15{fill:#273aaa;}.cls-16{fill:#f6f8f8;}.cls-17{fill:#d1ecef;}.cls-18{fill:#552640;}.cls-19{fill:#c9e3e5;}</style></defs><path class="cls-16" d="M155.51,180.19v8.67c-4.93-2.78-5.1.24-8.04.93-5.44,1.27-11.07-2.65-16.47-1.86-.75.11-8.99,4.08-12.94,4.34-4.08.26-8.54-1.4-9.41-1.24-1.19.22-7.78,9.69-21.56,2.17-8.21,5.36-9.59.42-14.9-.31-10.33-1.41-17.25,3.39-20.78,3.72-5.18.49-8.54-1.89-9.02-1.86-.52.02-6.46,3.84-9.21,4.03-.05-.07-.67.18-1.57-1.08-1.7-2.4-6.47-9.24-6.28-11.62.26-3.07,6.19-8.8,13.33-2.94.32.26.82,1.95.98,2.01.39.16,3.84-.25,5.88.31,1.27.34,2.27,1.93,3.14,2.17.42.12,8.37.43,9.02.31,2.61-.51,8.85-11.56,21.95-.62,14.3-3.49,8.09-2.77,11.17-7.59,7.04-11.03,19,10.26,26.86-4.8.5,1.12,3.62,4.26,4.7,4.65.37.13,7.45,1.61,7.84,1.55.94-.14,3.8-8.56,15.68-5.89,4.7,1.06,4.24,5.16,9.61,4.96h0Z"/><path class="cls-7" d="M309.57,168.11c-.39,1.08-.76,2.04-1.18,3.1l-5.49-3.25,6.66.15Z"/><path class="cls-16" d="M171.19,180.19c.41,3.03.55,5.38.78,8.36l-7.06-.31c.24-2.49,0-5.1.4-7.59.02-.14.78-1.02.78-1.08l5.1.62h0Z"/><path class="cls-2" d="M151.88,107.24c2.51,5.58,11.59,8.02,18.43,7.74l-.39,3.1c-2.2.06-3.59-.09-5.88.31-7.57,1.31-10.94,5.91-13.72,11.15-32.36-.79-56.91,5.65-90.75,4.65-16.55-.49-33-2.98-48.81-6.81.32-4.78,1.03-9.52,1.96-14.25,2.63.86,15.09-1.99,15.88-1.86,1.59.27,5.21,8.86,29.79,6.51,3.99-.39,13.02-2.87,13.72-2.78,1.81.21,11.01,8.66,34.89,4.96,3.21-.5,7.79-2.45,8.24-2.48,1.55-.12,8.91,4.1,21.56.93,2.34-.59,12.5-4.68,10.19-7.13-6.7,3.82-25.53,8.39-29.01,1.55-10.35,7.54-32.05,8-42.93,1.08,6.45-1.4,25.36-10.27,26.86-10.38,2.57-.18,30.56,11.78,49.98,3.72h0Z"/><path class="cls-16" d="M313.39,154.02c-.01.1.65.63.39,2.01-1.13,6.11-2.67,8.58-4.32,13.17l-6.66-.15,5.49,3.25c-2.26,5.81-4.13,11.8-8.24,17.04-2.26-3.52-4.52-.67-8.43-1.55-4.39-.99-6.76-7.23-15.68-6.2-2.14.25-5.95,2.58-8.62,2.78-2.28.18-4.84-.95-5.1-.93-.28.03-2,1.76-4.7,2.48-12.99,3.47-19.85-3.04-21.56-3.1-.65-.02-10.16,2.44-12.54,2.48-3.85.06-6.95-2.01-8.62-1.86-.99.09-5.08,3.76-19.21,3.1-.65-.03-3.34-1.25-3.53-1.24-.6.05-4.39,4.4-10.78,3.1.14-3.55.37-6.99.78-10.54,11.6,1.52,6.85.47,13.53-4.65,4.29.47,5.91,3.87,6.28,4.03,1.57.69,13.1-.37,13.72-.62.47-.18,1.13-4.81,5.49-6.51,8.95-3.48,13.67,3.72,14.5,3.72.47,0,2.88-3.23,8.43-.47.49.24-.84,1.89,4.11,1.4.78-11,10.53-7.32,12.94,1.55,7.84-6.58,15.19-1.12,16.07-1.24,1.24-.18,7.63-11.65,20.58-.47l3.53-5.89c-12.98-1.85-26.35-2.42-39.4-4.18-4.14-.55-18.96-3.98-19.99-4.03-1.79-.08-6.01.96-8.24.93-11.73-.14-22.94-.8-34.3-3.41,0-.06-.38.04-.4-1.24-.02-1.95-.02-3.93,0-5.89,10.48,1.65,8.48-11.76,15.49,2.78,10.06-2.15,5.64-.17,9.41,1.24,7.35,2.74,8.79-1.49,11.37-2.78,7.93-3.97,10.04,3.68,10.58,4.03,2.55,1.65,11.12.76,14.11-6.2,4.03,1.61,4.4,3.88,4.7,4.03.22.1,3.53.17,5.1.93,2.56,1.24,1.31,4.76,9.41,2.78,5.82-1.42,3-7.25,9.21-1.7,1.64,1.46-.74,2.46,5.69,3.56,3.51-5.22,7.74-3.28,8.24-3.41.66-.17,2.3-6.84,11.17-2.17h0Z"/><path class="cls-15" d="M150.31,129.55c-.8,1.5-1.29,2.82-1.96,4.34-3.35,4.43-4.77,9.61-7.45,14.25-.87,1.5-1.82,3.56-1.96,3.72-.44.5-.36.59-.39.62-.9.62-14.48,2.94-15.88,2.17-.24-.14-.5-3.25-1.77-4.49-4.89-4.81-7.61,3.91-10,4.8-3.22,1.2-19.17-.34-21.36-4.18-1.32-2.31,3.14-3.35-10.39-3.25.06,7.27-.34,4.12-8.62,7.74-2.59-5.22-8.85-2.67-9.41-2.78-.52-.11-2.32-4.12-5.1-4.96-1.5.46-3.53,4.86-3.92,4.96-.44.11-3.04-1.73-8.24,2.17-3.31-.85-2.84-3.51-4.51-5.42-3.48-3.98-6.69-2.19-7.25-2.33-.68-.16-5.08-6.78-8.24,3.72-3.07-.63-6.03-3.53-7.06-3.41-.39.05-4.13,3.58-5.29,4.03-1.51-5.96-1.21-17.45-.78-23.86,15.8,3.84,32.26,6.32,48.81,6.81,33.83,1,58.39-5.44,90.75-4.65v.02Z"/><path class="cls-15" d="M314.96,141.63c-.2,3.72-.24,7.94-.78,11.62-.03.19-.78.72-.78.78-8.88-4.67-10.51,2.01-11.17,2.17-.49.12-4.72-1.81-8.24,3.41-6.43-1.11-4.04-2.1-5.69-3.56-6.21-5.54-3.4.29-9.21,1.7-8.09,1.97-6.85-1.54-9.41-2.78-1.57-.76-4.88-.82-5.1-.93-.3-.14-.68-2.42-4.7-4.03-2.99,6.97-11.56,7.85-14.11,6.2-.55-.35-2.66-8-10.58-4.03-2.58,1.29-4.01,5.53-11.37,2.78-3.77-1.4.65-3.39-9.41-1.24-7.01-14.55-5.01-1.13-15.49-2.78-2.4-6.19-4.06-15.54-6.66-21.38,40.99,3.57,81.97,6.98,122.7,12.09h0Z"/><path class="cls-11" d="M314.17,116.84c1.5,8.33,1.24,16.39.78,24.79-40.74-5.1-81.71-8.51-122.7-12.09-2.03-4.54-4.13-8.11-9.8-10.22,13.69-5.17,9.66-5.94,10.58-7.74,8.05-1.92,7.74,3.21,13.13,6.2,13.33,7.4,22.92-5.08,24.31-5.26,1.61-.22,14.94,11.8,29.4,8.99,1.27-.25,5.75-2.82,7.45-2.78,4.98.08,20.56,9.73,46.85-1.86h0Z"/><path class="cls-15" d="M308.29,98.87c1.64,4.2,3.59,8.39,4.7,12.7-8.71-1.6-16.97-4.5-24.89-7.74-1.28.26-.08,4.87-.78,5.26-.62.34-14.58.53-15.29.31-.28-.09-.86-1.77-1.96-1.86-.69-.06-11.23,3.1-13.33,3.1,8.36,2.31,35.38-1.06,37.25-.93.83.06,12.46,4.86,15.29,4.96-20.21,11.44-39.67-.18-43.51,0-5.31.26-7.9,11.29-30.78-3.25.45-.58,13.27.22,14.7-.15.58-.15.44-1.35,3.73-2.01-1.31-4.19-4.54-.92-9.61-.47-13.37,1.22-18.17-3.2-29.01-7.74-4.88,3.22,5.77,5.07,11.17,9.45-13.47,11.3-15.5,4.5-25.87-4.18,1.41-2.58-.06-2.5,0-2.63.42-1.04,2.43-2.6,2.36-4.8h105.85v-.02Z"/><path class="cls-15" d="M158.93,144.11c0,.1.01.21,0,.31-.14.85-6.13,6.76-7.84,15.8-.97,5.14-2.06,8.47,4.7,11.15-.72,3.25-.39,6.64-.39,9.92-5.36.21-4.9-3.9-9.61-4.96-11.88-2.67-14.74,5.75-15.68,5.89-.39.06-7.47-1.42-7.84-1.55-1.08-.39-4.21-3.53-4.7-4.65-7.85,15.06-19.82-6.22-26.86,4.8-3.08,4.82,3.12,4.1-11.17,7.59-13.11-10.95-19.34.1-21.95.62-.65.13-8.59-.19-9.02-.31-.87-.24-1.87-1.82-3.14-2.17-2.04-.55-5.49-.15-5.88-.31-.16-.06-.67-1.76-.98-2.01-7.14-5.85-13.07-.12-13.33,2.95-5-6.72-7.79-15.78-10.19-23.54,19.38,9.1,60.48,13.8,82.13,12.7,13.58-.69,42.52-7.65,52.33-15.65.83-1.67-2.89-4.44-4.7-5.73,4.65-6.52,9.37-13.13,11.76-20.45l.78.15c-.28,1.73,1.61,8.97,1.57,9.45h0Z"/><path class="cls-15" d="M152.27,99.18c-.25.85-.64,1.62-.78,2.48-3.77.24-1.75,5.39-3.73,6.2-22.94,4.09-40.75-8.49-44.3-8.36-1.72.06-28.95,11.78-30.97,11.77-1.32,0-1.48-1.24-1.96-1.24-.66,0-.6,2.52-11.37,4.65-9.28,1.84-19.54,2.05-26.86-3.56,14.21-3.81,9.59-2.38,17.84-1.7,12.71,1.04,1.21-.91-3.92-1.86-4.39-1.5-5-4.12-5.49-4.03-1.11,5.26-8.65,6.23-9.61,5.42-.17-.14-.54-1.91-1.37-2.01-.85-.1-6.1,4.98-16.27,2.78.85-3.64,1.82-7.29,3.14-10.84l135.64.31h0Z"/><path class="cls-15" d="M140.9,154.33c-3.7,4.47-10.12,9.46-2.55,5.58.97-.5,5.77-3.88,5.69-4.96.09.06.7-.06.78,0,1.82,1.29,5.53,4.06,4.7,5.73-9.82,8-38.76,14.96-52.33,15.65-21.65,1.1-62.75-3.6-82.13-12.7-.9-2.91-3.44-7.92-1.57-8.99,18.84,2.09,36.45,8.73,55.47,9.92,21.71,1.36,51.59-1.85,70.37-11.15.4.32,1.08.67,1.57.93Z"/><path class="cls-16" d="M138.55,152.47c.19.28.52.72.78.93-18.78,9.31-48.66,12.51-70.37,11.15-19.02-1.19-36.63-7.82-55.47-9.92-1.78.31-1.47-1.48-1.96-3.41,1.16-.45,4.9-3.98,5.29-4.03,1.03-.12,3.99,2.78,7.06,3.41,3.15-10.5,7.55-3.88,8.24-3.72.56.13,3.78-1.66,7.25,2.33,1.67,1.91,1.19,4.57,4.51,5.42,5.18-3.9,7.79-2.06,8.24-2.17.38-.1,2.42-4.49,3.92-4.96,2.77.84,4.58,4.85,5.1,4.96.55.12,6.82-2.43,9.41,2.78,8.29-3.63,8.68-.48,8.62-7.74,13.52-.1,9.07.95,10.39,3.25,2.2,3.85,18.15,5.39,21.36,4.18,2.38-.89,5.11-9.61,10-4.8,1.26,1.24,1.52,4.36,1.77,4.49,1.4.76,14.97-1.55,15.88-2.17h0Z"/><path class="cls-15" d="M304.37,89.89c1.39,2.98,2.73,5.95,3.92,8.99h-105.85c0-.26-2.17-4.59-2.36-4.8-.19-.23-2.82-1.9-5.1-3.88,36.46-.1,72.92-.21,109.37-.31h0Z"/><path class="cls-15" d="M66.42,76.87c-13.57,1.97-26.59,6.36-32.54,16.88.68.79,2.31.39,3.92.47,1.55.07,3.15-.02,4.7,0,2.51.03,5.01-.3,7.45-.31,7.22-.05,6.51-.66,6.86-.62.17.02.27.93.98.93,17.29-.07,34.45-.11,51.75,0,1.59,0,1.49-.31,1.57-.31,1.82.02,3.69-.02,5.49,0h1.57c1.83.02,3.66-.02,5.49,0,2.99.04,6.02.22,9.02.31,5.64.15,8.32-.35,14.31,1.24l9.21-4.65c1.17-.14,2.2-.28,1.96,0-3.17,2.83-3.92,1.84-5.88,8.36l-135.64-.31c1.16-3.14,2.91-5.95,4.32-8.99,1.83.13,10.17-.09,10.78-.31.54-.2,2.52-4.08,4.11-4.03-1.21,1.27-9.5,11.07-2.94,8.36,1.9-.78,4.81-16.27,33.52-17.04v.02Z"/><path class="cls-15" d="M304.37,89.89c-36.46.1-72.92.21-109.37.31-1.67-1.44-5.34-6.03-11.57-6.81-5.11-.65-10.05.59-10.58.62-1.52.07-3.63-1.05-5.49-.62-.99.23-2.2,2.38-2.36,2.48-6.61,4.14-3.93,3.39-4.51,3.88-.4.33-2.08.84-2.36,1.08.24-.28-.79-.14-1.96,0-9.37,1.07-12.76,2.77-8.62-.47-.46-.67-8.16,4.46-1.18-1.86-1.77.47-3.53.93-5.29,1.4,2.97-10.35-7.55,3.22-4.11-6.66-12.07,5.14.73-6.32-9.61-.15-1.36-8.37-1.67.2-9.41-2.78,6.58-6.92-3.35.38-8.43-2.01,8.85-5.49-1.02-.99-3.33-.78-6.68.6-3.97-1.04-.98-3.25-3.48.51-6.28,3.35-9.8,1.55,7.02-5.55-3.77,1.58-7.45-.62,8.04-4.98-.77-.22-5.1.15-4.76,1.06,8.29-5.89-2.94-.93-.99-6-2.38.21-3.92,0-1.76-2.78-5-4.77-2.15,0-2.1,1.08-6.25-4.21-6.28-2.33,6,6.27-1.74.79-5.69.15,4.01,4.82-2.98.27-5.88,1.24-.64.22.38.75,0,.93-.19.09-1.51-.5-4.32.31-1.52.44-8.31,3.19-10,4.03-11.31,5.6-8.33,9.99-19.6,8.06C39.42,52.01,77.49,22.29,124.23,13.68c46.75-8.62,93.58-2.08,131.72,21.38,24.41,15.01,37.93,32.17,48.42,54.84h0Z"/><path class="cls-12" d="M149.72,45.27c5.08-.37,9.54,1.95,10.98,5.89,2.15-4.42,10.09-8.72,14.31-3.56.33.4.28,2.15.59,2.33.55.3,9.36-1.31,8.62,5.89,4.59-.49,5.44,1.7,5.88,1.86.52.19,5.49-1.18,6.07,6.04l-63.31.15c-2.66-4.16,5.6-10.05,10.78-10.07-3.16-3.73.92-8.14,6.07-8.52h0Z"/><path class="cls-15" d="M185.59,136.67c1.13,8.61,3.83,17.57,6.86,25.72l3.53-2.78c2.12,5.38,3.24,4.15,3.33-1.55,11.37,2.61,22.57,3.27,34.3,3.41,2.23.02,6.44-1.01,8.24-.93,1.03.05,15.85,3.47,19.99,4.03,13.04,1.76,26.42,2.33,39.4,4.18l-3.53,5.89c-12.95-11.19-19.34.29-20.58.47-.88.13-8.23-5.34-16.07,1.24-2.4-8.87-12.16-12.55-12.94-1.55-4.95.5-3.63-1.15-4.11-1.4-5.55-2.77-7.96.47-8.43.47-.83,0-5.56-7.2-14.5-3.72-4.36,1.69-5.03,6.32-5.49,6.51-.62.25-12.16,1.31-13.72.62-.37-.16-1.98-3.55-6.28-4.03-6.68,5.11-1.92,6.17-13.53,4.65.22-1.86.43-3.73.78-5.58,7.46-2.62,5.86-10,5.1-15.34-.6-4.21-2.69-7.94-3.92-11.93-.34-1.12-.77-.87-.78-.93-.39-1.69,1.31-6,1.57-8.06l.78.62h0Z"/><path class="cls-9" d="M194.9,90.25c2.28,1.97,4.9,3.64,5.1,3.88.18.22,2.34,4.54,2.36,4.8.08,2.21-1.93,3.76-2.36,4.8-.06.14,1.41.06,0,2.63-1.32,2.42-6.69,4.55-7.06,5.26-.93,1.81,3.11,2.58-10.58,7.74-.2-.07-2.14-.17-4.32-.93-.68-.24-3.42-1.11-3.53-1.24-.19-.23,0-2.85-.98-3.1-.17-.04-1.11.84-3.33.93-6.84.28-15.91-2.17-18.43-7.74-1.07-2.38-.79-3.16-.4-5.58.14-.86.53-1.63.78-2.48,1.96-6.53,2.71-5.53,5.88-8.36.27-.24,1.95-.75,2.36-1.08.58-.48-2.1.27,4.51-3.88.15-.1,1.36-2.25,2.36-2.48,1.85-.43,3.97.69,5.49.62.54-.02,5.47-1.27,10.58-.62,6.23.79,9.89,5.38,11.57,6.81h0Z"/><path class="cls-6" d="M182.75,172.36c-.35,1.85-.57,3.72-.78,5.58-.42,3.54-.64,6.98-.78,10.54-.08,1.98-.71,14.47-.4,15.18-2.61.21-5.23.41-7.84.62-.2-4.83-.78-9.73-1.18-14.57-.24-2.98-.37-5.34-.78-8.36-.32-2.37-.7-4.74-.78-7.13,1.58.02,11.05-1.33,12.54-1.86Z"/><path class="cls-6" d="M167.46,173.6c-1.42,1.81-1.19,4.98-1.57,7.13,0,.06-.76.95-.78,1.08-.39,2.49-.15,5.1-.4,7.59-.45,4.65-1.02,9.28-1.18,13.94l-8.24.31c.26-4.51,0-9.12,0-13.63v-8.67c0-3.28-.32-6.66.4-9.92,2.86,1.13,8.5,1.89,11.76,2.17h0Z"/><path class="cls-16" d="M181.96,204.58c-.34.33-.28.63-.4.93-.29.74.4,1.71-.39,2.48-.03.03-.37.3-.4.31-.71.27-6.32.31-7.84.31,0-.1-.34-.3-.4-1.86-.07-2.1.4-2.35.4-2.48,2.61-.21,5.23-.41,7.84-.62.04.08,1.52-.43,1.18.93h0Z"/><path class="cls-14" d="M174.51,117.2c-1.67,2.16-4.44.92-4.7.93l.39-3.1c2.22-.09,3.17-.97,3.33-.93.98.25.79,2.86.98,3.1Z"/><path class="cls-8" d="M182.75,172.36c-1.49.52-10.96,1.88-12.54,1.86-.15,0-1.64-.52-2.74-.62-3.26-.28-8.9-1.04-11.76-2.17-6.76-2.68-5.67-6.02-4.7-11.15,2-2.74,3.15-1.7,3.73-2.17,1.89-1.56,6.05-9.4,8.04-12.08,1.88.23,19.85.44,21.17-.93,1.24,3.99,3.32,7.71,3.92,11.93.76,5.34,2.36,12.73-5.1,15.34h0Z"/><path class="cls-8" d="M162.75,146.02c-1.99,2.69-6.15,10.53-8.04,12.09-.57.47-1.73-.57-3.73,2.17,1.71-9.04,7.7-14.95,7.84-15.8,2.34.1.6,1.13,3.92,1.55Z"/><path class="cls-18" d="M183.13,144.17c.01.06.44-.18.78.93-1.32,1.36-19.29,1.16-21.17.93-3.32-.42-1.58-1.45-3.92-1.55.01-.1,0-.21,0-.31h24.31Z"/><path class="cls-14" d="M141.98,153.76c.68.43,1.29.79,1.96,1.24.09,1.08-4.72,4.46-5.69,4.96-7.58,3.88-1.15-1.11,2.55-5.58.33-.39.42-.75,1.18-.62Z"/><path class="cls-1" d="M180.79,208.3v.31l-7.45.62c-.01-.3-.38-.32-.39-.62,1.52,0,7.13-.03,7.84-.31Z"/><path class="cls-17" d="M178.04,118.45c2.18.75,4.11.85,4.32.93,5.67,2.13,7.78,5.69,9.8,10.22,2.6,5.83,4.26,15.19,6.66,21.38-.02,1.96-.02,3.93,0,5.89-1.44-.17-7.61.29-8.24-.15-.98-.71-3.45-18.22-5.1-20.61-.19-1.64-.25-3.32-.59-4.96-.47,0-.01,3.51-.19,4.96-.26,2.05-1.95,6.36-1.57,8.06h-23.91l-1.57-12.86c-.9.81-.89,2.38-1.18,3.25-2.39,7.32-7.11,13.93-11.76,20.45-.09-.06-.7.06-.78,0-.67-.45-1.28-.82-1.96-1.24-.98-.61-1.61-1.78-3.14-1.86.14-.17,1.09-2.21,1.96-3.72,4.43-1.67,6.22-11.48,7.45-14.25.67-1.51,1.16-2.83,1.96-4.34,2.78-5.25,6.15-9.85,13.72-11.15,3.52,1.63,10.85,2.19,14.11,0Z"/><path class="cls-16" d="M178.04,118.45c-3.26,2.19-10.59,1.63-14.11,0,2.29-.39,3.68-.25,5.88-.31.27,0,3.03,1.23,4.7-.93.11.13,2.84,1,3.53,1.24h0Z"/><path class="cls-14" d="M198.82,156.87c.01,1.28.4,1.17.4,1.24-.09,5.7-1.21,6.93-3.33,1.55l-3.53,2.78c-3.02-8.15-5.73-17.1-6.86-25.72-.03-.2.02-.42,0-.62,1.64,2.38,4.11,19.89,5.1,20.61.62.45,6.8-.02,8.24.15h-.01Z"/><path class="cls-17" d="M140.8,148.19c2.68-4.64,4.1-9.82,7.45-14.25-1.23,2.77-3.02,12.58-7.45,14.25Z"/><path class="cls-14" d="M141.98,153.76c-.75-.13-.85.22-1.18.62-.49-.26-1.16-.61-1.57-.93-.27-.21-.59-.65-.78-.93.04-.02-.04-.12.39-.62,1.53.08,2.15,1.24,3.14,1.86h0Z"/><path class="cls-14" d="M159.22,144.17h-.39c.04-.47-1.85-7.72-1.57-9.45l-.78-.15c.29-.87.28-2.45,1.18-3.25l1.57,12.86Z"/><path class="cls-10" d="M185.49,136.11c.02.2-.03.42,0,.62l-.78-.62c.19-1.45-.27-4.96.19-4.96.33,1.64.4,3.31.59,4.96Z"/><path class="cls-16" d="M163.54,203.34c0,.15.44.03.4,3.1,0,.51,0,1.03,0,1.55-2.89-.06-5.83.53-7.84,0-.27-.07-.8.17-.78-.31.14-.58-.06-1.47,0-2.17.06-.61-.04-1.24,0-1.86l8.24-.31h0Z"/><path class="cls-5" d="M163.93,207.99v.62h-7.84s-.61-.12,0-.62c2.01.53,4.95-.06,7.84,0Z"/><path class="cls-16" d="M163.93,208.61v1.55c-.01,1.13.06,2.28,0,3.41-.17,3.43,1.64,4.79-7.25,3.72-.43-.28-.88-2.52-.98-3.1-.27-1.48-.2-4.41.4-5.58h7.84,0Z"/><path class="cls-16" d="M180.79,214.49c-2.41-.14-5.03-.23-7.45-.31h-.4c-.47-1.53.47-3.55.4-4.96l7.45-.62v5.89Z"/><path class="cls-16" d="M180.79,214.49c.13,0,.27,0,.4,0,2.99,4.98-10.35,5.45-7.84-.31,2.42.07,5.04.17,7.45.31Z"/><path class="cls-14" d="M299,189.19c-6.87,12.77-24.54,31.23-37.44,40.59-71.42,49.54-172.63,39.02-225.22-23.71-3.17-3.79-4.08-6.03-4.32-6.36,2.75-.18,8.69-4,9.21-4.03.47-.02,3.83,2.34,9.02,1.86,3.53-.33,10.44-5.13,20.78-3.72,5.31.72,6.69,5.67,14.9.31,13.78,7.52,20.37-1.95,21.56-2.17.86-.16,5.33,1.5,9.41,1.24,3.95-.26,12.19-4.23,12.94-4.34,5.4-.79,11.03,3.13,16.47,1.86,2.94-.68,3.1-3.72,8.04-.93,0,4.52.26,9.12,0,13.63-.04.62.06,1.24,0,1.86-6.54.49-37.5,5.23-30.19,14.1,7.12,8.63,57.52,6.95,74.48,3.56,22.17-4.43,15.18-12.67-.19-16.73-2.94-.78-15.9-3.32-17.44-1.86.35-1.36-1.14-.85-1.18-.93-.32-.71.31-13.2.4-15.18,6.39,1.3,10.17-3.05,10.78-3.1.19-.02,2.87,1.21,3.53,1.24,14.12.66,18.22-3.01,19.21-3.1,1.67-.15,4.78,1.92,8.62,1.86,2.38-.03,11.9-2.5,12.54-2.48,1.71.06,8.57,6.57,21.56,3.1,2.71-.72,4.42-2.45,4.7-2.48.26-.02,2.82,1.12,5.1.93,2.67-.22,6.48-2.54,8.62-2.78,8.92-1.04,11.29,5.21,15.68,6.2,3.91.88,6.17-1.97,8.43,1.55h0Z"/><path class="cls-13" d="M154.34,205.29c-.06.7.14,1.6,0,2.17-.16.67-.37,1.39-1.18,1.86l.4-1.7c-6.32.87-27.2,3.67-24.7,10.22,2.09,2.39,2.36.69,2.55.78.74.33,1.57,1.37,3.14,1.86,2.49.78,11.86,3.07,12.35,1.24,10.13,2.09,34.76,1.43,45.08-.62,3.78-.75,9.72-2.42,11.76-5.11.85-3.82-7.56-5.35-9.02-7.9,5.12,1.04,16.42,3.49,12.54,9.45-1.73,2.66-8.91,3.13-8.62,5.42-16.97,3.39-67.37,5.06-74.48-3.56-7.32-8.86,23.65-13.6,30.19-14.1h0Z"/><path class="cls-17" d="M198.64,222.96c-.29-2.29,6.89-2.76,8.62-5.42,3.88-5.96-7.42-8.42-12.54-9.45-.36-.07-.86.64-.98.62-.39-.08,0-.85-.4-.93-4.14-.81-9.04-.47-12.74-2.48.11-.3.05-.6.4-.93,1.55-1.46,14.51,1.08,17.44,1.86,15.37,4.06,22.37,12.3.19,16.73h0Z"/><path class="cls-3" d="M155.13,207.77c-.61.5.01.59,0,.62-.6,1.16-.66,4.09-.39,5.58-1.65.4-9.64.33-8.62,2.63,9.18,3.43,15.7,1.35,21.76,1.4.68,0,5.74,1.61,13.33.62,1.06-.14,8.75-2.26,8.82-2.63-2.56-1.92-6.5-1.49-9.8-1.7-.13,0-.27,0-.39,0v-6.2s.36-.28.39-.31c.7.02.17.75.59.93,1.23.52,17.05,2.4,16.66,8.21-2.36,2.39-6.28,2.03-5.49,4.18-10.32,2.05-34.95,2.7-45.08.62-3.86-.79-9.1-2.37-9.02-6.04,2.79-4.16,14.58-5.94,15.29-6.36.8-.47,1.02-1.2,1.18-1.86-.02.47.52.24.78.31h0Z"/><path class="cls-17" d="M153.17,209.32c-.71.41-12.49,2.19-15.29,6.36-.09,3.68,5.16,5.25,9.02,6.04-.5,1.82-9.86-.47-12.35-1.24-1.57-.49-2.4-1.53-3.14-1.86-.19-.08-.46,1.61-2.55-.78-2.51-6.56,18.38-9.35,24.7-10.22l-.4,1.7Z"/><path class="cls-17" d="M194.72,208.09c1.45,2.55,9.87,4.08,9.02,7.9-2.04,2.7-7.98,4.36-11.76,5.11-.79-2.15,3.12-1.79,5.49-4.18.38-5.81-15.43-7.69-16.66-8.21-.42-.18.11-.91-.59-.93.79-.77.11-1.74.39-2.48,3.7,2.01,8.61,1.67,12.74,2.48.39.07,0,.85.4.93.11.02.62-.69.98-.62h0Z"/><path class="cls-17" d="M171.59,206.54c.05,1.56.39,1.77.4,1.86h-.78c-2.67-.02-5.54-.56-8.24-.62,0-.51,0-1.04,0-1.55,2.88.1,5.75.21,8.62.31h0Z"/><path class="cls-17" d="M171.99,213.98h.39c-2.51,5.76,10.83,5.3,7.84.31,3.3.21,7.23-.22,9.8,1.7-.07.37-7.76,2.5-8.82,2.63-7.58.99-12.66-.62-13.33-.62-6.05-.05-12.58,2.04-21.76-1.4-1.02-2.31,6.97-2.23,8.62-2.63.1.58.55,2.82.98,3.1,8.89,1.07,7.09-.29,7.25-3.72,1.64,1.1,5.47.5,9.02.62h0Z"/><path class="cls-19" d="M171.99,208.4c.01.3.37.32.4.62.08,1.4-.87,3.43-.4,4.96-3.55-.12-7.38.48-9.02-.62.06-1.13-.01-2.27,0-3.41,5.5-.26,9.13.96,8.24-1.55h.78Z"/><path class="cls-4" d="M171.2,208.4c.9,2.5-2.74,1.28-8.24,1.55v-2.17c2.69.06,5.56.59,8.24.62Z"/></svg>